<svg width="1382" height="364" viewBox="0 0 1382 364" fill="none" xmlns="http://www.w3.org/2000/svg">
<rect width="364" height="364" rx="73.6336" fill="#4F3296"/>
<path d="M96.5574 63.2138V104.199M96.5574 104.199H61.1299H131.638M96.5574 104.199V209.786M96.5574 255.981V275.431C98.0625 285.504 106.213 305.649 126.775 305.649C147.337 305.649 222.406 305.649 257.37 305.649C267.096 305.649 267.096 295.924 267.096 295.924V276.473M96.5574 255.981H142.752M96.5574 255.981V209.786M141.015 63.2138C159.139 63.2138 195.731 63.2138 221.596 63.2138M220.901 255.981H240.351C249.266 255.518 267.096 249.521 267.096 229.237C267.096 225.012 267.096 218.224 267.096 209.786M220.901 255.981C219.28 240.583 226.25 209.786 267.096 209.786M220.901 255.981H142.752M267.096 209.786C267.096 182.953 267.096 139.445 267.096 108.714M142.752 255.981C144.373 240.583 137.403 209.786 96.5574 209.786M221.596 63.2138C227.785 63.2138 233.36 63.2138 237.92 63.2138C261.538 63.2138 267.211 82.6642 267.096 92.3894C267.096 97.1972 267.096 102.712 267.096 108.714M221.596 63.2138C219.627 78.3805 225.972 108.714 267.096 108.714" stroke="white" stroke-width="20.145" stroke-linecap="round" stroke-linejoin="round"/>
<path d="M560.75 169.05C562.35 169.05 565.45 169.65 570.05 170.85C574.65 171.95 579.5 174.1 584.6 177.3C589.7 180.5 594.1 185.1 597.8 191.1C601.5 197.1 603.35 204.95 603.35 214.65C603.35 226.35 600.6 236.1 595.1 243.9C589.7 251.6 582 257.4 572 261.3C562.1 265.1 550.35 267 536.75 267H481.55C465.65 267 457.7 259.05 457.7 243.15V105C457.7 89.2 465.65 81.3 481.55 81.3H528.5C540.3 81.3 551.4 82.55 561.8 85.05C572.2 87.55 580.6 92.1 587 98.7C593.4 105.2 596.6 114.55 596.6 126.75C596.6 135.75 595.05 143.05 591.95 148.65C588.95 154.25 585.3 158.55 581 161.55C576.8 164.45 572.75 166.45 568.85 167.55C564.95 168.55 562.25 169.05 560.75 169.05ZM498.95 111V158.25H525.65C531.15 158.25 536.2 157.45 540.8 155.85C545.5 154.15 549.2 151.5 551.9 147.9C554.7 144.3 556.1 139.6 556.1 133.8C556.1 127.3 554.55 122.45 551.45 119.25C548.45 116.05 544.4 113.9 539.3 112.8C534.3 111.6 528.85 111 522.95 111H498.95ZM524.3 237.3C535.9 237.3 544.95 235.25 551.45 231.15C558.05 227.05 561.35 220.25 561.35 210.75C561.35 200.95 557.95 194.25 551.15 190.65C544.45 186.95 536.45 185.1 527.15 185.1H498.95V237.3H524.3ZM665.942 267C658.742 267 653.292 265.75 649.592 263.25C645.992 260.65 644.192 256.95 644.192 252.15C644.192 247.35 645.992 243.7 649.592 241.2C653.292 238.6 658.742 237.3 665.942 237.3H692.492V111H665.942C658.742 111 653.292 109.75 649.592 107.25C645.992 104.65 644.192 100.95 644.192 96.15C644.192 91.35 645.992 87.7 649.592 85.2C653.292 82.6 658.742 81.3 665.942 81.3H757.892C765.192 81.3 770.642 82.6 774.242 85.2C777.842 87.7 779.642 91.35 779.642 96.15C779.642 100.95 777.842 104.65 774.242 107.25C770.642 109.75 765.192 111 757.892 111H731.792V237.3H757.892C765.192 237.3 770.642 238.6 774.242 241.2C777.842 243.7 779.642 247.35 779.642 252.15C779.642 256.95 777.842 260.65 774.242 263.25C770.642 265.75 765.192 267 757.892 267H665.942ZM932.234 169.05C933.834 169.05 936.934 169.65 941.534 170.85C946.134 171.95 950.984 174.1 956.084 177.3C961.184 180.5 965.584 185.1 969.284 191.1C972.984 197.1 974.834 204.95 974.834 214.65C974.834 226.35 972.084 236.1 966.584 243.9C961.184 251.6 953.484 257.4 943.484 261.3C933.584 265.1 921.834 267 908.234 267H853.034C837.134 267 829.184 259.05 829.184 243.15V105C829.184 89.2 837.134 81.3 853.034 81.3H899.984C911.784 81.3 922.884 82.55 933.284 85.05C943.684 87.55 952.084 92.1 958.484 98.7C964.884 105.2 968.084 114.55 968.084 126.75C968.084 135.75 966.534 143.05 963.434 148.65C960.434 154.25 956.784 158.55 952.484 161.55C948.284 164.45 944.234 166.45 940.334 167.55C936.434 168.55 933.734 169.05 932.234 169.05ZM870.434 111V158.25H897.134C902.634 158.25 907.684 157.45 912.284 155.85C916.984 154.15 920.684 151.5 923.384 147.9C926.184 144.3 927.584 139.6 927.584 133.8C927.584 127.3 926.034 122.45 922.934 119.25C919.934 116.05 915.884 113.9 910.784 112.8C905.784 111.6 900.334 111 894.434 111H870.434ZM895.784 237.3C907.384 237.3 916.434 235.25 922.934 231.15C929.534 227.05 932.834 220.25 932.834 210.75C932.834 200.95 929.434 194.25 922.634 190.65C915.934 186.95 907.934 185.1 898.634 185.1H870.434V237.3H895.784ZM1073.73 237.3H1130.88C1138.68 237.3 1144.58 238.6 1148.58 241.2C1152.68 243.7 1154.73 247.35 1154.73 252.15C1154.73 256.95 1152.68 260.65 1148.58 263.25C1144.58 265.75 1138.68 267 1130.88 267H1056.33C1040.43 267 1032.48 259.05 1032.48 243.15V103.65C1032.48 87.75 1039.38 79.8 1053.18 79.8C1066.88 79.8 1073.73 87.75 1073.73 103.65V237.3ZM1269.37 269.85C1255.67 269.85 1248.82 261.95 1248.82 246.15V193.65C1246.32 191.15 1243.82 187.65 1241.32 183.15L1200.37 110.85C1197.77 106.55 1196.47 101.95 1196.47 97.05C1196.47 92.65 1197.97 88.6 1200.97 84.9C1204.07 81.2 1208.77 79.35 1215.07 79.35C1220.17 79.35 1224.17 80.8 1227.07 83.7C1229.97 86.6 1232.97 91.2 1236.07 97.5L1269.52 162.3L1302.97 97.2C1306.17 91 1309.32 86.5 1312.42 83.7C1315.62 80.8 1319.72 79.35 1324.72 79.35C1330.92 79.35 1335.37 81.15 1338.07 84.75C1340.87 88.35 1342.27 92.35 1342.27 96.75C1342.27 99.05 1341.92 101.5 1341.22 104.1C1340.52 106.6 1339.52 108.85 1338.22 110.85L1297.42 183.15C1296.22 185.25 1295.02 187.15 1293.82 188.85C1292.62 190.55 1291.37 192.1 1290.07 193.5V246.15C1290.07 261.95 1283.17 269.85 1269.37 269.85Z" fill="white"/>
</svg>
