<svg width="524" height="524" viewBox="0 0 524 524" fill="none" xmlns="http://www.w3.org/2000/svg">
<rect width="524" height="524" rx="106" fill="#4F3296"/>
<path d="M139 91V150M139 150H88H189.5M139 150V302M139 368.5V396.5C141.167 411 152.9 440 182.5 440C212.1 440 320.167 440 370.5 440C384.5 440 384.5 426 384.5 426V398M139 368.5H205.5M139 368.5V302M203 91C229.09 91 281.767 91 319 91M318 368.5H346C358.833 367.833 384.5 359.2 384.5 330C384.5 323.919 384.5 314.146 384.5 302M318 368.5C315.667 346.333 325.7 302 384.5 302M318 368.5H205.5M384.5 302C384.5 263.372 384.5 200.739 384.5 156.5M205.5 368.5C207.833 346.333 197.8 302 139 302M319 91C327.91 91 335.935 91 342.5 91C376.5 91 384.667 119 384.5 133C384.5 139.921 384.5 147.86 384.5 156.5M319 91C316.167 112.833 325.3 156.5 384.5 156.5" stroke="white" stroke-width="29" stroke-linecap="round" stroke-linejoin="round"/>
</svg>
